<?xml version="1.0" standalone="no"?>
<!DOCTYPE svg PUBLIC "-//W3C//DTD SVG 20010904//EN"
 "http://www.w3.org/TR/2001/REC-SVG-20010904/DTD/svg10.dtd">
<svg version="1.0" xmlns="http://www.w3.org/2000/svg"
 width="1200.000000pt" height="900.000000pt" viewBox="0 0 1200.000000 900.000000"
 preserveAspectRatio="xMidYMid meet">

<g transform="translate(0.000000,900.000000) scale(0.100000,-0.100000)"
fill="#000000" stroke="none">
<path d="M8518 8489 c-21 -12 -38 -69 -38 -131 0 -55 -14 -98 -32 -98 -7 0
-26 -7 -43 -16 -16 -9 -70 -31 -120 -50 -49 -19 -97 -38 -105 -43 -21 -11 -24
-72 -6 -115 13 -32 19 -36 50 -36 20 0 77 18 128 41 51 22 99 43 106 46 16 7
16 -32 -4 -163 -24 -164 -95 -389 -167 -531 -21 -40 -41 -73 -46 -73 -9 0 -16
47 -27 180 -6 80 -48 257 -70 302 -18 35 -45 49 -81 42 -53 -11 -76 -43 -128
-180 -14 -37 -29 -72 -34 -78 -5 -6 -14 -29 -21 -51 -19 -57 -51 -124 -87
-181 -17 -27 -36 -68 -42 -91 -15 -54 -69 -125 -105 -138 -26 -9 -32 -6 -63
30 -20 22 -55 70 -79 106 -25 37 -50 71 -57 77 -40 31 -113 16 -124 -26 -3
-15 -26 -71 -50 -126 -61 -136 -62 -144 -19 -185 l34 -33 23 51 c12 29 29 56
39 61 19 10 71 -20 135 -80 62 -59 77 -64 138 -46 32 9 64 28 84 48 39 40 123
185 124 213 0 29 151 326 172 339 25 15 42 -10 68 -99 36 -119 37 -169 2 -134
-15 15 -51 -6 -63 -37 -18 -46 99 -244 143 -244 27 0 71 59 137 183 17 32 46
79 64 105 18 26 46 81 61 122 16 41 43 107 61 147 18 39 38 90 44 113 12 46
30 45 30 -3 0 -92 71 -335 111 -378 63 -68 136 -21 179 116 7 22 30 74 50 116
l38 77 -34 33 c-39 38 -36 40 -84 -52 -35 -68 -53 -85 -69 -65 -18 22 -58 198
-80 351 -35 251 -35 231 -1 255 17 12 30 30 30 40 0 33 -32 104 -55 125 -14
12 -26 37 -30 60 -11 72 -15 83 -31 99 -18 18 -32 20 -56 5z"/>
<path d="M6614 7929 c-129 -16 -234 -111 -313 -281 -115 -245 -130 -442 -56
-723 20 -77 40 -144 44 -150 5 -5 16 -34 26 -63 26 -79 130 -185 204 -206 71
-21 76 -20 157 9 92 32 158 103 234 249 50 97 80 131 80 90 0 -9 8 -28 19 -42
10 -15 26 -63 35 -107 9 -44 25 -107 35 -140 11 -33 22 -77 25 -97 8 -47 37
-84 59 -75 10 4 17 17 17 30 0 13 11 34 25 47 28 26 30 43 15 139 -20 120 -39
245 -48 306 -5 33 -19 96 -30 140 -12 44 -24 92 -27 107 -12 61 -79 78 -133
33 -33 -28 -46 -55 -62 -135 -11 -54 -65 -201 -101 -271 -37 -73 -131 -129
-193 -113 -36 9 -130 109 -164 173 -38 71 -81 220 -97 338 -24 167 13 408 78
504 57 84 161 101 250 40 26 -17 74 -68 107 -111 34 -44 66 -80 71 -80 41 0
107 137 90 183 -14 35 -141 152 -196 179 -67 34 -80 36 -151 27z"/>
<path d="M7281 7906 c-23 -13 -43 -45 -86 -133 -36 -75 -9 -171 46 -165 46 5
75 23 103 65 27 40 28 46 23 130 -7 115 -25 137 -86 103z"/>
<path d="M3492 7865 c-52 -25 -92 -49 -90 -54 2 -8 141 -165 417 -473 l33 -38
-94 0 -94 0 -220 199 -219 199 -47 -81 c-26 -45 -48 -84 -48 -87 0 -3 89 -54
197 -115 l196 -110 -382 -3 -381 -2 0 -85 0 -85 506 -2 506 -3 0 -72 c-1 -40
-1 -77 -1 -83 -1 -6 -87 -10 -238 -10 -229 0 -238 -1 -269 -22 -40 -27 -54
-56 -54 -108 0 -57 30 -129 84 -198 52 -68 185 -173 242 -192 48 -16 126 -7
232 27 94 31 108 26 118 -39 15 -90 -35 -196 -110 -235 -44 -23 -147 -20 -218
5 -158 56 -352 232 -499 454 l-45 67 -71 -62 c-40 -34 -72 -64 -72 -67 -2 -13
142 -193 209 -260 226 -229 457 -332 673 -300 249 36 390 217 347 444 -32 169
-115 215 -296 163 -174 -51 -198 -46 -295 54 -48 48 -60 66 -57 87 l3 27 273
3 272 2 0 160 0 160 430 0 430 0 0 -304 0 -304 -39 -35 c-56 -50 -95 -68 -160
-74 -116 -9 -193 67 -195 191 -1 88 24 133 99 171 43 22 75 30 126 33 38 3 69
6 69 9 0 13 -44 149 -51 159 -12 15 -146 -1 -216 -27 -148 -56 -224 -143 -243
-279 -18 -125 24 -254 106 -330 116 -107 292 -134 440 -66 31 14 58 26 60 26
2 0 4 -70 4 -155 l0 -155 115 0 115 0 0 304 0 303 29 37 c63 79 123 110 204
104 53 -4 64 -8 92 -40 53 -57 64 -158 29 -253 -16 -44 -79 -133 -131 -186
l-54 -56 53 -39 c29 -22 66 -48 82 -58 l28 -18 60 58 c70 70 142 175 177 258
35 83 37 226 4 298 -74 161 -284 249 -446 188 -31 -12 -70 -32 -86 -46 -16
-13 -32 -24 -35 -24 -3 0 -6 70 -6 155 l0 155 365 0 365 0 0 85 0 85 -928 0
-927 0 -144 243 c-184 310 -215 360 -227 364 -5 1 -51 -18 -102 -42z"/>
<path d="M1680 7891 c-104 -33 -182 -101 -228 -199 -24 -51 -27 -69 -27 -167
0 -100 3 -115 28 -162 15 -29 27 -55 27 -58 0 -3 -238 -5 -530 -5 l-530 0 0
-110 0 -110 290 0 290 0 0 -115 c0 -140 -12 -178 -63 -194 -61 -20 -119 16
-183 116 l-34 52 -92 -55 c-51 -30 -93 -61 -92 -68 2 -23 164 -275 270 -417
110 -149 297 -384 314 -394 11 -7 203 123 198 135 -2 4 -47 54 -100 111 -86
92 -238 279 -238 292 0 3 28 22 63 43 163 98 180 129 184 329 1 77 2 146 3
153 0 9 45 12 190 12 l190 0 0 -135 0 -135 -165 0 -165 0 0 -110 0 -110 165 0
165 0 0 -300 0 -300 115 0 115 0 2 543 3 542 173 3 172 2 0 -165 0 -165 115 0
115 0 0 165 0 165 90 0 90 0 0 110 0 110 -82 0 -83 1 -32 97 c-46 142 -94 223
-193 322 -94 96 -169 141 -271 165 -67 15 -216 19 -259 6z m286 -85 c82 -29
183 -104 240 -180 81 -106 144 -245 159 -351 l7 -45 73 0 73 0 4 -40 4 -40
-88 0 -88 0 0 -165 0 -165 -45 0 -45 0 0 165 0 165 -245 0 -245 0 0 -546 0
-545 -40 3 -41 3 -2 295 -2 295 -167 3 -168 2 0 40 0 40 168 2 167 3 0 200 0
200 -267 3 -268 2 0 -179 c0 -103 -5 -192 -11 -208 -23 -62 -106 -120 -205
-144 -27 -6 -53 -15 -58 -20 -10 -9 36 -86 117 -194 34 -44 63 -82 66 -85 25
-22 151 -170 151 -177 0 -13 -72 -55 -80 -46 -162 185 -500 658 -500 701 0 6
14 19 31 28 l32 16 39 -46 c109 -127 253 -130 316 -6 20 40 22 58 22 202 l0
158 -290 0 -290 0 0 40 0 40 566 0 565 0 -44 63 c-60 83 -77 128 -84 213 -11
134 51 248 162 301 45 22 60 24 155 20 64 -2 125 -11 156 -21z"/>
<path d="M1705 7735 c-80 -28 -135 -115 -135 -210 1 -80 71 -208 148 -268 l35
-27 265 0 265 0 -7 42 c-14 84 -98 257 -160 329 -41 48 -126 108 -181 128 -66
25 -170 27 -230 6z m247 -88 c70 -41 153 -137 198 -231 22 -45 40 -90 40 -99
0 -15 -20 -17 -210 -17 l-210 0 -39 40 c-80 82 -108 201 -67 278 25 48 65 63
162 59 66 -3 89 -8 126 -30z"/>
<path d="M8510 6636 l0 -385 -42 -3 -43 -3 -3 -72 -3 -73 45 0 46 0 2 -342 3
-342 80 0 80 1 3 347 2 346 103 0 c84 0 108 4 134 20 63 38 64 43 61 429 l-3
348 -28 36 c-50 65 -71 72 -264 75 l-173 4 0 -386z m318 -88 l2 -298 -75 0
-75 0 0 293 c0 162 3 297 7 301 4 4 37 6 73 4 l65 -3 3 -297z"/>
<path d="M9312 7003 c-43 -21 -79 -64 -92 -111 -6 -21 -10 -154 -10 -314 l0
-278 -45 0 -45 0 0 -80 0 -80 33 -1 c17 -1 38 -1 45 0 9 2 12 -77 12 -364 l0
-365 85 0 85 0 0 360 0 360 65 0 65 0 0 -360 0 -360 90 0 90 0 0 724 c0 781 0
777 -53 834 -37 40 -81 52 -191 52 -72 0 -110 -5 -134 -17z m169 -162 c24 -19
24 -20 27 -280 l4 -261 -66 0 -66 0 0 251 c0 246 4 281 34 301 19 13 43 9 67
-11z"/>
<path d="M9978 7000 c-37 -20 -64 -53 -86 -103 -9 -21 -12 -194 -12 -680 0
-613 2 -654 19 -692 39 -85 100 -115 228 -114 101 1 140 12 183 53 53 49 60
81 60 262 l0 164 -79 0 -80 0 -3 -151 c-3 -145 -4 -152 -27 -170 -30 -25 -72
-24 -99 1 l-22 21 0 610 0 610 25 24 c26 27 41 30 78 16 36 -14 47 -59 47
-187 l0 -114 80 0 80 0 0 163 c0 186 -11 224 -76 273 -36 28 -42 29 -158 31
-105 3 -126 0 -158 -17z"/>
<path d="M10460 6665 l0 -355 90 0 90 0 0 275 0 275 90 0 90 0 0 80 0 80 -180
0 -180 0 0 -355z"/>
<path d="M2190 6629 l0 -39 115 0 115 0 0 40 0 41 -115 -2 -115 -1 0 -39z"/>
<path d="M2190 6470 l0 -40 115 0 115 0 0 40 0 40 -115 0 -115 0 0 -40z"/>
<path d="M10840 6340 l0 -60 75 0 75 0 0 60 0 60 -75 0 -75 0 0 -60z"/>
<path d="M2192 6173 l3 -178 110 0 110 0 3 178 2 177 -115 0 -115 0 2 -177z
m158 -3 l0 -110 -45 0 -45 0 0 110 0 110 45 0 45 0 0 -110z"/>
<path d="M10470 6220 l0 -60 75 0 75 0 0 60 0 60 -75 0 -75 0 0 -60z"/>
<path d="M10670 6220 l0 -60 75 0 75 0 0 60 0 60 -75 0 -75 0 0 -60z"/>
<path d="M10460 5775 l0 -355 230 0 230 0 5 23 c4 18 2 95 -4 130 0 4 -64 7
-141 7 l-140 0 0 275 0 275 -90 0 -90 0 0 -355z"/>
<path d="M3650 5621 c-89 -25 -110 -34 -184 -81 -115 -73 -224 -205 -270 -328
-43 -116 -46 -154 -46 -562 l0 -390 155 0 155 0 0 190 0 190 25 0 25 0 0 155
0 155 -26 0 c-27 0 -27 1 -21 57 12 117 98 236 207 287 36 17 64 21 140 21 83
-1 102 -4 145 -27 73 -38 132 -100 168 -176 l32 -67 3 -392 3 -393 155 0 155
0 -4 418 c-3 388 -5 421 -24 478 -61 183 -188 335 -343 413 -48 23 -115 49
-150 56 -90 20 -221 18 -300 -4z"/>
<path d="M943 5561 c-238 -59 -428 -240 -499 -477 -24 -80 -25 -247 -1 -327
72 -239 257 -414 504 -477 68 -18 111 -20 415 -20 l338 0 0 155 0 155 -312 0
c-172 0 -332 5 -356 10 -187 44 -304 216 -271 398 22 117 90 204 199 256 l65
31 338 3 337 3 0 154 0 155 -342 -1 c-293 0 -354 -3 -415 -18z m655 -138 l3
-53 -273 0 c-151 0 -293 -5 -318 -11 -132 -30 -261 -131 -318 -249 -119 -245
11 -533 281 -623 55 -18 92 -21 345 -25 l282 -4 0 -49 0 -49 -282 0 c-317 0
-363 6 -482 68 -279 145 -382 476 -234 755 58 109 195 222 316 262 90 29 140
33 412 31 l265 -1 3 -52z"/>
<path d="M1820 5425 l0 -154 338 -3 337 -3 55 -27 c84 -41 135 -90 172 -166
29 -59 33 -76 33 -152 0 -76 -4 -92 -33 -152 -38 -77 -92 -130 -171 -167 -53
-24 -66 -26 -238 -29 l-183 -4 0 36 0 36 -155 0 -155 0 0 -190 0 -190 333 0
c382 0 425 6 577 82 161 81 300 251 345 424 19 74 19 220 0 303 -42 179 -184
351 -357 435 -145 71 -181 76 -565 76 l-333 0 0 -155z"/>
<path d="M5085 5565 c-256 -56 -459 -249 -521 -495 -20 -78 -22 -215 -5 -290
7 -30 31 -93 53 -140 33 -70 56 -101 127 -171 71 -71 102 -94 181 -133 144
-71 182 -76 568 -76 l332 0 0 154 0 155 -337 3 c-308 3 -342 5 -383 22 -172
74 -259 237 -216 404 27 108 97 190 205 241 l56 26 338 3 337 3 0 154 0 155
-337 -1 c-241 0 -355 -4 -398 -14z"/>
<path d="M6900 4949 l0 -170 23 3 c22 3 22 5 22 162 0 155 0 159 -22 167 l-23
8 0 -170z"/>
<path d="M7398 5113 c-16 -4 -18 -21 -18 -169 0 -157 1 -164 20 -164 19 0 20
7 20 170 0 94 -1 169 -2 169 -2 -1 -11 -3 -20 -6z"/>
<path d="M10865 5095 c-16 -15 -25 -36 -25 -55 0 -20 -5 -30 -15 -30 -8 0 -15
-9 -15 -20 0 -11 7 -20 15 -20 12 0 15 -17 15 -95 0 -88 1 -95 20 -95 19 0 20
7 20 95 0 95 0 95 25 95 18 0 25 5 25 20 0 15 -7 20 -25 20 -16 0 -25 6 -25
16 0 27 20 54 40 54 13 0 20 7 20 20 0 29 -45 26 -75 -5z"/>
<path d="M8480 4944 l0 -165 23 3 c22 3 22 6 25 166 l2 162 -25 0 -25 0 0
-166z"/>
<path d="M1822 5068 l3 -33 153 -3 152 -3 0 36 0 35 -156 0 -155 0 3 -32z"/>
<path d="M6346 5053 c-3 -27 -8 -99 -12 -160 -6 -108 -5 -113 13 -113 17 0 21
9 27 61 3 34 6 92 7 128 l0 66 34 -119 c50 -177 59 -178 110 -10 18 60 36 102
39 94 3 -8 7 -60 8 -115 3 -96 4 -100 26 -103 l23 -4 -6 99 c-13 225 -13 223
-46 223 -16 0 -29 -3 -29 -7 0 -5 -15 -59 -33 -120 l-33 -112 -34 119 c-32
116 -34 120 -61 120 -25 0 -28 -4 -33 -47z"/>
<path d="M7144 5086 c-8 -21 3 -36 27 -36 15 0 20 6 17 22 -4 27 -35 37 -44
14z"/>
<path d="M7487 5094 c-4 -4 -7 -16 -7 -26 0 -14 6 -19 23 -16 14 2 22 10 22
23 0 20 -25 32 -38 19z"/>
<path d="M8670 4940 l0 -160 25 0 c24 0 25 3 25 59 l0 59 38 7 c59 10 92 46
92 99 0 67 -38 96 -125 96 l-55 0 0 -160z m126 91 c16 -31 0 -77 -29 -85 -44
-12 -47 -8 -47 55 l0 60 32 -3 c22 -2 36 -10 44 -27z"/>
<path d="M7017 5053 c-4 -3 -7 -15 -7 -25 0 -10 -7 -18 -15 -18 -8 0 -15 -9
-15 -20 0 -11 7 -20 15 -20 12 0 15 -15 15 -73 0 -86 16 -117 61 -117 22 0 29
5 29 20 0 13 -7 20 -20 20 -18 0 -20 7 -20 74 0 70 1 75 22 78 34 5 37 38 4
38 -21 0 -26 5 -26 25 0 18 -5 25 -18 25 -10 0 -22 -3 -25 -7z"/>
<path d="M7670 5012 c-8 -2 -23 -11 -32 -20 -16 -14 -18 -13 -18 1 0 10 -8 17
-20 17 -19 0 -20 -7 -20 -115 l0 -115 25 0 c25 0 25 1 25 83 0 88 8 107 46
107 29 0 34 -17 34 -111 0 -78 0 -79 25 -79 25 0 25 1 25 79 0 43 -5 92 -11
109 -11 31 -50 53 -79 44z"/>
<path d="M7863 5010 c-31 -13 -63 -68 -63 -108 0 -78 59 -139 108 -113 30 16
34 14 30 -16 -4 -36 -45 -57 -82 -43 -21 8 -28 7 -33 -6 -9 -24 11 -36 62 -36
38 -1 51 4 73 26 26 26 27 30 30 161 3 131 3 135 -17 135 -12 0 -21 -4 -21 -9
0 -6 -12 -3 -27 5 -32 16 -30 16 -60 4z m61 -46 c19 -19 22 -114 4 -132 -17
-17 -38 -15 -60 5 -26 23 -25 96 2 123 24 24 34 25 54 4z"/>
<path d="M8310 5011 c-14 -4 -26 -15 -28 -25 -3 -15 1 -16 32 -10 23 4 42 2
51 -6 26 -21 17 -37 -24 -44 -67 -10 -100 -74 -65 -124 17 -25 71 -30 93 -9
11 10 14 10 18 0 3 -7 13 -13 24 -13 17 0 19 8 19 75 0 90 -18 141 -55 155
-29 11 -29 11 -65 1z m70 -138 c0 -34 -10 -50 -30 -53 -35 -5 -41 0 -38 32 2
25 9 34 28 39 39 11 40 11 40 -18z"/>
<path d="M8956 4999 c-21 -17 -26 -18 -26 -5 0 9 -9 16 -20 16 -20 0 -21 -5
-18 -112 3 -109 4 -113 26 -116 21 -3 22 0 22 70 0 76 16 118 46 118 8 0 14
10 14 25 0 30 -9 31 -44 4z"/>
<path d="M9079 5002 c-64 -32 -78 -144 -24 -198 53 -53 146 -17 161 62 19 104
-54 177 -137 136z m75 -44 c23 -33 21 -103 -4 -128 -11 -11 -24 -20 -28 -20
-43 0 -68 99 -38 145 20 31 50 32 70 3z"/>
<path d="M9315 5011 c-53 -22 -78 -96 -55 -165 15 -46 61 -73 97 -57 32 15 33
15 33 -14 0 -37 -41 -60 -80 -46 -25 8 -32 7 -37 -5 -9 -25 13 -37 63 -36 37
0 53 6 73 26 25 25 26 31 29 161 3 131 3 135 -17 135 -12 0 -21 -4 -21 -9 0
-6 -12 -3 -27 5 -32 16 -31 16 -58 5z m59 -47 c11 -10 16 -34 16 -70 0 -48 -3
-56 -25 -66 -21 -9 -28 -8 -45 7 -28 25 -28 97 0 125 24 24 34 25 54 4z"/>
<path d="M9565 5004 c-19 -10 -31 -11 -33 -5 -2 6 -13 11 -24 11 -18 0 -19 -6
-17 -102 3 -120 5 -128 30 -128 17 0 19 8 19 73 0 75 16 117 46 117 8 0 14 10
14 25 0 29 3 29 -35 9z"/>
<path d="M9668 5009 c-16 -6 -28 -17 -28 -25 0 -12 8 -13 35 -8 22 4 41 2 50
-6 26 -21 17 -37 -24 -44 -67 -10 -100 -74 -65 -124 17 -25 71 -30 93 -9 11
10 14 10 18 0 3 -7 14 -13 25 -13 19 0 20 5 16 95 -3 78 -8 99 -23 115 -26 24
-63 32 -97 19z m72 -138 c0 -27 -22 -61 -38 -61 -39 1 -40 58 -2 77 36 18 40
16 40 -16z"/>
<path d="M9907 4999 c-22 -17 -27 -18 -27 -5 0 9 -8 16 -20 16 -19 0 -20 -7
-20 -115 l0 -115 25 0 c25 0 25 1 25 83 0 93 7 110 41 105 28 -4 37 -30 38
-120 1 -61 3 -68 21 -68 18 0 20 7 20 84 0 77 2 86 23 101 21 15 23 14 40 -6
13 -16 17 -40 17 -100 0 -72 2 -79 20 -79 19 0 20 7 20 95 0 89 -2 98 -25 121
-27 27 -54 26 -86 -2 -13 -11 -17 -11 -30 0 -26 26 -55 27 -82 5z"/>
<path d="M10262 5004 c-18 -7 -32 -9 -32 -4 0 6 -9 10 -20 10 -19 0 -20 -7
-20 -115 0 -106 1 -115 19 -115 17 0 19 9 22 86 3 70 7 88 23 99 13 10 24 11
37 4 15 -8 19 -24 21 -97 3 -82 4 -87 26 -90 21 -3 22 -1 22 82 0 89 14 122
46 109 24 -9 34 -47 34 -124 0 -62 2 -69 20 -69 19 0 20 7 20 91 0 50 -5 99
-11 110 -21 41 -86 44 -111 5 -5 -7 -11 -6 -20 5 -20 25 -41 28 -76 13z"/>
<path d="M10585 5006 c-68 -30 -84 -144 -27 -201 22 -22 33 -25 76 -23 39 2
52 7 54 21 3 14 -4 17 -42 17 -46 0 -76 18 -76 46 0 11 15 14 65 14 l65 0 0
39 c0 69 -57 112 -115 87z m65 -45 c18 -34 11 -41 -35 -41 -49 0 -59 15 -29
44 21 22 51 20 64 -3z"/>
<path d="M11014 5010 c-41 -16 -64 -59 -64 -117 0 -47 4 -59 29 -84 22 -21 39
-29 66 -29 27 0 44 8 66 29 24 25 29 37 29 81 0 65 -21 105 -61 119 -37 13
-37 13 -65 1z m53 -38 c37 -24 37 -121 0 -147 -18 -12 -24 -13 -41 -1 -63 41
-22 188 41 148z"/>
<path d="M11258 5005 c-16 -7 -28 -10 -28 -4 0 5 -9 9 -20 9 -19 0 -20 -7 -20
-115 0 -108 1 -115 20 -115 18 0 20 7 20 68 0 75 15 113 46 122 15 4 19 11 15
27 -6 21 -8 22 -33 8z"/>
<path d="M6670 4924 c0 -81 10 -120 34 -136 19 -13 64 -9 79 7 13 13 16 13 21
0 3 -8 12 -15 21 -15 13 0 15 18 15 115 0 108 -1 115 -20 115 -18 0 -20 -7
-20 -69 0 -94 -12 -123 -47 -119 -33 4 -41 26 -42 121 -1 60 -3 67 -21 67 -18
0 -20 -7 -20 -86z"/>
<path d="M7140 4895 l0 -115 25 0 25 0 0 115 0 115 -25 0 -25 0 0 -115z"/>
<path d="M7480 4894 c0 -114 0 -115 23 -112 21 3 22 7 25 116 l3 112 -26 0
-25 0 0 -116z"/>
<path d="M8042 4920 c6 -107 23 -140 70 -140 17 0 40 7 50 17 17 15 18 15 18
0 0 -10 8 -17 20 -17 19 0 20 7 20 115 l0 115 -25 0 c-25 0 -25 -1 -25 -83 0
-85 -8 -107 -42 -107 -27 0 -38 32 -38 114 0 75 0 76 -26 76 l-27 0 5 -90z"/>
<path d="M1820 4915 l0 -35 155 0 155 0 0 35 0 35 -155 0 -155 0 0 -35z"/>
<path d="M3590 4795 l0 -155 35 0 35 0 0 155 0 155 -35 0 -35 0 0 -155z"/>
<path d="M3740 4795 l0 -155 35 0 35 0 0 155 0 155 -35 0 -35 0 0 -155z"/>
<path d="M3900 4795 l0 -155 35 0 35 0 0 155 0 155 -35 0 -35 0 0 -155z"/>
<path d="M7237 4924 c-4 -4 -7 -13 -7 -21 0 -9 16 -13 56 -13 47 0 55 3 52 18
-2 13 -15 18 -48 20 -25 2 -49 0 -53 -4z"/>
<path d="M1820 4761 c0 -28 1 -28 68 -34 37 -3 106 -3 155 0 l87 6 0 28 0 29
-155 0 -155 0 0 -29z"/>
<path d="M6430 4540 c0 -33 -2 -60 -5 -60 -3 0 -14 5 -25 12 -26 16 -67 1 -94
-35 -27 -36 -28 -120 -2 -159 22 -34 68 -45 101 -24 13 8 25 12 27 7 4 -12 36
-19 37 -8 1 4 1 79 1 167 0 153 -1 160 -20 160 -18 0 -20 -7 -20 -60z m-16
-102 c33 -46 10 -138 -34 -138 -10 0 -26 10 -34 22 -33 46 -10 138 34 138 10
0 26 -10 34 -22z"/>
<path d="M10200 4541 l0 -59 -30 11 c-41 15 -79 -5 -104 -56 -45 -93 33 -213
107 -164 18 12 24 12 35 1 15 -17 45 -6 38 13 -3 8 -6 82 -6 164 0 142 -1 149
-20 149 -18 0 -20 -7 -20 -59z m-16 -103 c33 -46 10 -138 -34 -138 -10 0 -26
10 -34 22 -33 46 -10 138 34 138 10 0 26 -10 34 -22z"/>
<path d="M7361 4580 c-19 -11 -9 -45 14 -45 13 0 21 8 23 21 3 23 -17 37 -37
24z"/>
<path d="M8075 4572 c-124 -59 -105 -278 26 -307 47 -11 101 2 97 23 -3 12
-12 16 -33 15 -53 -4 -96 16 -111 53 -42 100 19 208 108 189 21 -5 30 -2 34
10 9 21 2 26 -43 31 -25 3 -52 -2 -78 -14z"/>
<path d="M11072 4581 c-19 -11 -11 -45 11 -49 9 -2 20 4 23 13 9 21 -16 47
-34 36z"/>
<path d="M6101 4543 c-6 -21 -26 -91 -45 -155 l-34 -118 24 0 c20 0 26 8 36
45 l12 46 45 -3 c45 -3 46 -4 58 -49 12 -40 16 -46 37 -42 l23 5 -34 116 c-18
65 -38 134 -44 155 -8 32 -14 37 -39 37 -25 0 -31 -5 -39 -37z m58 -85 c6 -26
11 -49 11 -52 0 -3 -15 -6 -33 -6 l-34 0 16 60 c8 33 18 56 22 52 3 -4 11 -28
18 -54z"/>
<path d="M9860 4426 l0 -155 28 -3 c15 -2 51 -1 80 0 43 3 52 7 52 23 0 16 -8
19 -55 19 l-55 0 0 50 0 50 50 0 c43 0 50 3 50 20 0 17 -7 20 -50 20 l-50 0 0
45 0 45 55 0 c48 0 55 2 55 20 0 18 -7 20 -80 20 l-80 0 0 -154z"/>
<path d="M9308 4542 c-11 -2 -18 -13 -18 -28 0 -15 -6 -24 -15 -24 -8 0 -15
-7 -15 -15 0 -8 7 -15 15 -15 12 0 15 -16 15 -80 0 -89 17 -120 65 -120 18 0
25 5 25 20 0 11 -7 20 -15 20 -22 0 -32 36 -27 103 4 52 6 57 28 57 15 0 24 6
24 15 0 9 -9 15 -24 15 -17 0 -26 8 -32 28 -6 19 -15 27 -26 24z"/>
<path d="M10948 4542 c-10 -2 -18 -12 -18 -23 0 -11 -7 -22 -15 -25 -8 -4 -15
-12 -15 -19 0 -7 7 -15 15 -19 12 -4 15 -23 15 -84 0 -88 14 -112 63 -112 20
0 27 5 27 20 0 13 -7 20 -20 20 -24 0 -32 28 -28 101 3 47 6 54 26 57 29 4 29
30 0 34 -15 2 -25 12 -28 28 -3 18 -10 24 -22 22z"/>
<path d="M6528 4493 c-10 -3 -18 -5 -18 -6 0 -1 15 -49 33 -107 30 -93 36
-105 58 -108 23 -3 27 4 60 107 35 104 36 110 17 114 -22 6 -28 -5 -56 -103
l-18 -64 -23 82 c-13 45 -27 84 -30 86 -3 1 -14 1 -23 -1z"/>
<path d="M6753 4490 c-38 -15 -18 -39 27 -33 31 4 40 2 49 -15 13 -24 9 -27
-41 -36 -21 -4 -44 -16 -53 -29 -36 -51 0 -126 53 -112 34 8 53 9 72 4 12 -3
15 12 18 89 3 87 1 94 -22 117 -26 26 -62 31 -103 15z m87 -131 c0 -33 -19
-59 -44 -59 -28 0 -40 24 -26 50 18 34 70 41 70 9z"/>
<path d="M7002 4484 c-12 -8 -22 -10 -22 -5 0 6 -9 11 -20 11 -19 0 -20 -7
-20 -110 0 -103 1 -110 20 -110 18 0 20 7 20 68 0 77 16 116 48 120 30 4 42
-30 42 -119 0 -62 2 -69 20 -69 19 0 20 7 20 93 0 85 -2 96 -23 115 -27 26
-54 28 -85 6z"/>
<path d="M7224 4490 c-12 -4 -31 -21 -44 -37 -18 -23 -21 -37 -18 -85 5 -66
25 -95 74 -104 43 -8 74 3 74 26 0 16 -5 18 -28 14 -43 -9 -77 24 -77 74 0 55
28 85 73 80 28 -4 32 -1 30 16 -3 23 -47 32 -84 16z"/>
<path d="M7520 4483 c-17 -12 -25 -13 -28 -5 -2 7 -12 12 -23 12 -18 0 -19 -8
-19 -110 l0 -110 25 0 c25 0 25 1 25 78 0 64 4 82 18 95 43 39 66 8 67 -91 0
-72 1 -77 23 -80 21 -3 22 -1 22 88 0 83 -2 93 -25 115 -28 29 -51 31 -85 8z"/>
<path d="M7717 4480 c-75 -59 -48 -210 38 -210 19 0 37 5 40 10 13 21 27 9 20
-17 -11 -46 -25 -56 -72 -50 -31 3 -43 1 -48 -11 -8 -21 -2 -24 53 -30 41 -3
53 0 78 21 l29 25 3 136 c3 132 3 136 -17 136 -12 0 -21 -5 -21 -11 0 -6 -7
-3 -16 5 -21 22 -56 20 -87 -4z m87 -42 c18 -26 20 -65 6 -102 -12 -33 -64
-37 -80 -7 -25 48 0 131 40 131 10 0 26 -10 34 -22z"/>
<path d="M8279 4485 c-14 -8 -32 -28 -39 -45 -16 -39 -8 -125 15 -150 39 -44
123 -32 150 21 8 15 15 51 15 79 0 44 -5 56 -29 81 -33 32 -70 37 -112 14z
m79 -37 c36 -46 14 -148 -32 -148 -16 0 -30 8 -37 22 -16 30 -16 103 1 122 15
19 54 21 68 4z"/>
<path d="M8483 4493 c-9 -3 -13 -35 -13 -113 0 -99 2 -108 20 -113 19 -5 20 0
20 73 0 62 4 83 19 101 16 20 23 22 38 13 15 -9 19 -27 21 -98 3 -84 3 -86 27
-86 24 0 24 2 27 86 2 68 7 89 20 97 12 8 21 7 32 -2 12 -10 16 -33 16 -97 0
-84 0 -84 26 -84 l26 0 -4 94 c-2 75 -7 98 -22 115 -24 26 -57 27 -86 3 -23
-18 -24 -18 -42 0 -22 22 -47 23 -73 4 -16 -11 -21 -11 -30 -1 -5 7 -16 11
-22 8z"/>
<path d="M8880 4483 c-17 -12 -25 -13 -28 -5 -2 7 -12 12 -23 12 -19 0 -19 -7
-17 -157 3 -155 3 -158 26 -161 21 -3 22 0 22 53 0 51 2 56 18 50 39 -16 53
-17 78 0 37 24 57 79 49 133 -12 78 -70 113 -125 75z m64 -45 c32 -45 10 -138
-31 -138 -31 0 -53 31 -53 74 0 48 22 86 50 86 10 0 26 -10 34 -22z"/>
<path d="M9463 4488 c-70 -34 -69 -184 2 -216 47 -21 118 -11 113 17 -2 12
-13 15 -44 13 -45 -4 -74 15 -74 49 0 17 7 19 66 19 l67 0 -6 42 c-9 70 -65
104 -124 76z m76 -50 c12 -32 6 -38 -40 -38 -31 0 -39 4 -39 18 0 44 64 59 79
20z"/>
<path d="M9648 4492 c-16 -3 -18 -17 -18 -113 l0 -109 25 0 c24 0 25 2 25 71
0 79 11 109 40 109 15 0 20 7 20 25 0 30 -22 33 -49 6 -18 -18 -20 -18 -23 -3
-2 11 -10 16 -20 14z"/>
<path d="M10585 4491 c-38 -16 -58 -50 -62 -104 -5 -68 21 -113 71 -122 44 -9
76 1 76 24 0 13 -7 16 -33 13 -45 -5 -72 26 -71 81 2 50 33 81 77 74 24 -3 28
-1 25 17 -3 23 -47 32 -83 17z"/>
<path d="M10733 4490 c-37 -15 -18 -39 26 -33 26 4 41 0 50 -11 18 -21 8 -32
-38 -40 -25 -4 -46 -15 -55 -28 -37 -52 -1 -127 52 -113 15 4 43 6 62 6 l35
-1 -5 96 c-4 85 -8 98 -29 115 -25 20 -62 23 -98 9z m87 -131 c0 -33 -19 -59
-44 -59 -32 0 -41 35 -15 61 26 26 59 25 59 -2z"/>
<path d="M11189 4472 c-57 -51 -50 -165 12 -197 61 -32 119 -4 140 66 23 76
-25 159 -92 159 -17 0 -41 -11 -60 -28z m95 -34 c47 -67 -14 -176 -68 -122
-18 18 -22 95 -6 125 14 26 55 24 74 -3z"/>
<path d="M11452 4484 c-12 -8 -22 -10 -22 -5 0 6 -9 11 -20 11 -19 0 -20 -7
-20 -110 l0 -110 25 0 c25 0 25 1 25 85 0 82 1 86 26 97 40 19 54 -8 54 -104
0 -77 0 -78 25 -78 24 0 25 2 25 68 0 37 -5 84 -10 104 -16 56 -62 74 -108 42z"/>
<path d="M7350 4380 l0 -110 25 0 25 0 0 110 0 110 -25 0 -25 0 0 -110z"/>
<path d="M9050 4400 c0 -83 2 -93 25 -115 28 -29 51 -31 82 -10 14 10 24 12
28 5 3 -5 15 -10 27 -10 16 0 19 5 14 23 -3 12 -6 61 -6 110 0 80 -2 87 -20
87 -18 0 -20 -7 -20 -78 0 -67 -3 -82 -21 -98 -15 -14 -24 -16 -37 -8 -13 9
-18 29 -20 98 -3 84 -3 86 -27 86 -25 0 -25 -1 -25 -90z"/>
<path d="M10300 4411 c0 -95 10 -127 46 -143 21 -10 31 -9 55 4 16 10 29 13
29 8 0 -6 12 -10 26 -10 22 0 25 3 20 23 -3 12 -6 61 -6 110 0 80 -2 87 -20
87 -18 0 -20 -7 -20 -78 0 -67 -3 -82 -21 -98 -15 -14 -24 -16 -37 -8 -13 9
-18 29 -20 98 -3 84 -3 86 -27 86 -24 0 -25 -2 -25 -79z"/>
<path d="M11060 4380 l0 -110 25 0 25 0 0 110 0 110 -25 0 -25 0 0 -110z"/>
<path d="M540 3075 l0 -605 5525 0 5525 0 0 605 0 605 -5525 0 -5525 0 0 -605z
m797 273 c11 -13 62 -127 112 -255 96 -239 101 -262 60 -284 -35 -18 -60 0
-90 67 l-29 65 -112 -3 -112 -3 -19 -50 c-21 -56 -43 -85 -65 -85 -24 0 -52
31 -52 58 0 33 175 473 197 495 25 25 85 22 110 -5z m1101 10 c8 -8 12 -45 12
-100 0 -48 2 -88 5 -88 2 0 21 11 41 25 66 45 167 25 201 -39 21 -38 31 -275
14 -318 -15 -39 -58 -48 -83 -18 -15 19 -18 41 -18 140 0 65 -4 130 -10 144
-18 48 -96 47 -127 -1 -14 -21 -19 -54 -21 -148 -3 -91 -8 -124 -20 -137 -19
-22 -46 -23 -66 -2 -14 13 -16 52 -16 273 0 275 1 281 50 281 14 0 31 -5 38
-12z m1263 2 c22 -12 26 -59 7 -78 -7 -7 -24 -12 -38 -12 -48 0 -67 45 -33 82
18 20 36 23 64 8z m1367 -2 c9 -9 12 -84 12 -275 0 -254 -1 -263 -20 -273 -28
-15 -59 -3 -70 26 l-9 24 -37 -25 c-53 -36 -97 -41 -152 -19 -73 30 -112 104
-112 209 1 87 58 174 126 191 41 10 110 -2 142 -25 17 -11 32 -21 35 -21 2 0
2 34 0 75 -4 59 -1 81 11 100 18 27 54 33 74 13z m720 -10 c19 -16 14 -56 -7
-68 -11 -5 -51 -10 -90 -10 l-71 0 0 -219 c0 -186 -2 -222 -16 -235 -21 -22
-50 -20 -74 4 -19 19 -20 33 -20 235 l0 215 -74 0 c-75 0 -106 13 -106 44 0
21 24 44 50 48 57 7 396 -5 408 -14z m906 6 c19 -18 21 -55 4 -72 -7 -7 -24
-12 -38 -12 -33 0 -50 17 -50 52 0 43 53 64 84 32z m682 -9 c15 -23 15 -27 0
-50 -19 -29 -56 -33 -80 -9 -21 20 -20 43 1 66 23 26 59 23 79 -7z m1620 1
c84 -39 137 -131 99 -169 -29 -29 -62 -21 -89 22 -38 59 -71 81 -125 81 -87 0
-137 -55 -148 -165 -12 -119 36 -208 122 -220 64 -10 113 16 147 79 14 28 35
53 46 57 25 10 62 -15 62 -42 0 -29 -28 -90 -53 -117 -87 -94 -272 -92 -363 3
-58 60 -78 123 -72 234 6 124 45 189 143 239 59 31 163 30 231 -2z m-6814 -3
c13 -12 18 -31 18 -75 0 -55 1 -58 24 -58 39 0 56 -11 56 -35 0 -24 -17 -35
-56 -35 l-24 0 0 -119 c0 -133 1 -136 65 -136 36 0 40 -3 43 -26 5 -39 -22
-54 -94 -54 -104 0 -123 36 -124 232 0 98 -1 102 -22 105 -32 4 -33 62 -2 66
18 3 22 12 28 65 8 82 44 110 88 70z m8048 2 c6 -8 14 -41 17 -74 5 -58 7 -60
36 -63 62 -6 58 -68 -4 -68 l-29 0 0 -124 c0 -134 4 -143 56 -130 14 4 31 1
39 -6 60 -50 -60 -103 -149 -66 -46 19 -56 55 -56 202 0 115 -1 124 -19 124
-10 0 -24 7 -32 16 -16 20 -1 48 30 52 18 3 21 10 21 55 0 31 6 62 16 75 17
25 56 29 74 7z m-8532 -137 c8 -8 12 -50 12 -122 0 -134 12 -183 46 -196 31
-12 88 9 103 38 6 12 11 72 11 134 0 125 11 158 55 158 47 0 55 -29 55 -212 0
-155 -2 -170 -20 -188 -11 -11 -25 -20 -32 -20 -19 0 -48 32 -48 53 0 17 -4
16 -34 -11 -62 -55 -165 -49 -210 11 -19 25 -21 45 -24 177 -2 96 1 156 8 169
12 24 58 29 78 9z m1398 -13 c67 -34 97 -80 102 -160 2 -35 -1 -80 -8 -100
-40 -122 -187 -169 -307 -100 -77 46 -111 155 -79 252 39 118 173 168 292 108z
m276 0 l11 -24 29 24 c34 28 75 32 117 10 34 -17 41 -32 30 -63 -9 -23 -12
-24 -67 -17 -86 10 -95 -4 -103 -158 -3 -67 -10 -130 -14 -139 -16 -40 -79
-29 -91 16 -3 12 -4 98 -2 190 3 178 5 186 56 186 14 0 26 -9 34 -25z m329 15
c18 -10 19 -23 19 -194 0 -172 -1 -184 -21 -202 -19 -17 -23 -17 -47 -3 l-27
15 -3 181 c-2 155 0 183 13 197 19 19 38 20 66 6z m350 0 c79 -22 121 -111 56
-118 -20 -2 -38 5 -63 27 -53 47 -134 41 -134 -9 0 -20 24 -32 119 -60 50 -14
84 -31 104 -51 26 -27 29 -35 24 -77 -11 -98 -124 -146 -255 -107 -61 18 -94
55 -90 99 3 26 8 31 33 34 24 2 34 -3 50 -27 33 -50 98 -67 143 -35 49 34 21
64 -92 99 -125 37 -164 94 -117 171 35 57 129 80 222 54z m465 -9 c67 -30 115
-115 100 -174 -8 -34 -29 -39 -162 -39 -63 0 -116 -4 -119 -8 -8 -13 19 -72
40 -90 10 -8 37 -15 61 -15 33 0 51 7 83 33 50 40 84 40 89 1 6 -49 -89 -109
-173 -109 -80 0 -164 52 -191 117 -29 69 -12 195 34 247 47 53 162 71 238 37z
m1407 -6 l13 -26 24 26 c41 44 150 23 150 -29 0 -35 -23 -49 -69 -41 -84 14
-99 -11 -108 -180 -4 -78 -10 -115 -21 -127 -19 -22 -40 -23 -64 -1 -16 14
-18 34 -18 190 0 101 4 182 10 194 16 29 66 25 83 -6z m528 2 c39 -26 49 -59
49 -159 0 -51 5 -118 12 -151 11 -55 11 -60 -7 -73 -27 -20 -43 -17 -71 13
l-25 27 -43 -22 c-68 -32 -110 -37 -162 -17 -50 19 -74 54 -74 109 0 57 40 93
125 112 144 33 145 34 145 54 0 11 -10 30 -21 41 -18 18 -30 20 -67 16 -38 -4
-52 -12 -78 -42 -26 -32 -36 -37 -58 -31 -59 15 -17 112 60 136 47 15 185 6
215 -13z m243 7 c24 -24 24 -359 -1 -386 -20 -22 -46 -23 -67 -2 -13 13 -16
45 -16 198 0 128 4 186 12 194 17 17 54 15 72 -4z m210 -15 c12 -28 14 -29 27
-13 37 45 133 57 187 24 52 -32 62 -69 62 -229 0 -138 0 -141 -25 -157 -30
-19 -63 -10 -70 19 -2 12 -6 77 -8 144 -2 102 -6 126 -22 143 -24 27 -68 25
-102 -4 -27 -24 -28 -27 -33 -156 -4 -115 -7 -133 -24 -146 -27 -19 -42 -18
-66 6 -18 18 -20 33 -20 188 0 184 7 212 56 212 18 0 28 -8 38 -31z m470 9
c13 -18 15 -53 13 -196 -2 -159 -4 -175 -21 -188 -27 -19 -42 -18 -66 6 -18
18 -20 33 -20 192 0 145 3 174 17 190 22 25 59 23 77 -4z m202 -3 l16 -25 30
22 c41 28 115 35 160 14 56 -27 66 -54 68 -201 3 -168 3 -171 -16 -189 -21
-21 -40 -20 -64 4 -18 18 -20 33 -20 139 0 66 -4 131 -10 145 -11 30 -51 43
-89 30 -45 -16 -61 -65 -61 -188 0 -88 -3 -113 -17 -128 -20 -22 -41 -23 -65
-1 -16 14 -18 34 -18 198 0 127 4 185 12 193 20 20 56 14 74 -13z m628 -9 c33
-25 36 -25 36 -8 0 26 24 44 52 40 43 -6 49 -37 45 -248 -3 -175 -5 -199 -24
-235 -28 -53 -71 -77 -152 -83 -120 -8 -215 38 -209 102 2 26 8 32 32 34 21 3
37 -5 63 -30 29 -28 41 -33 84 -33 67 0 99 33 99 101 l0 46 -30 -25 c-74 -63
-194 -37 -239 51 -59 116 -20 270 79 311 44 19 124 8 164 -23z m1272 15 c55
-25 87 -71 92 -135 6 -75 -2 -80 -153 -78 -118 2 -125 1 -125 -18 0 -33 23
-71 51 -86 49 -25 83 -17 142 32 33 27 72 31 81 8 10 -25 -22 -73 -63 -94
-157 -80 -321 16 -321 187 0 77 52 162 115 189 44 19 133 17 181 -5z m262 7
c7 -7 12 -20 12 -31 0 -16 4 -15 37 10 31 24 46 28 100 28 57 0 65 -3 95 -33
l33 -32 3 -146 c2 -81 1 -157 -2 -170 -8 -32 -50 -42 -76 -19 -18 16 -20 32
-20 136 0 115 -9 166 -33 181 -24 15 -66 8 -94 -16 -28 -24 -28 -26 -31 -154
-3 -112 -6 -133 -22 -147 -25 -22 -66 -13 -76 18 -11 33 -4 360 8 375 13 15
50 16 66 0z m748 -13 l16 -25 25 26 c21 23 30 26 69 21 48 -5 84 -30 84 -57 0
-30 -25 -42 -73 -35 -86 13 -107 -23 -107 -185 0 -102 -13 -140 -50 -140 -45
0 -50 20 -50 214 0 128 4 186 12 194 20 20 56 14 74 -13z m503 5 c66 -33 112
-115 97 -173 -8 -34 -27 -39 -162 -39 -62 0 -116 -4 -119 -8 -8 -13 19 -72 40
-90 10 -8 37 -15 61 -15 33 0 51 7 83 33 65 52 117 28 76 -34 -37 -57 -140
-87 -223 -64 -51 13 -110 63 -128 107 -29 69 -12 195 34 247 48 54 170 73 241
36z"/>
<path d="M1239 3143 c-19 -53 -35 -101 -37 -105 -2 -4 33 -8 78 -8 45 0 80 3
78 8 -1 4 -19 51 -38 105 -19 53 -38 97 -41 97 -3 0 -21 -44 -40 -97z"/>
<path d="M4819 3111 c-54 -54 -40 -185 23 -217 106 -55 187 115 102 216 -35
41 -84 42 -125 1z"/>
<path d="M2930 3115 c-32 -34 -40 -136 -16 -184 30 -57 101 -68 146 -23 50 50
51 145 3 202 -34 41 -98 43 -133 5z"/>
<path d="M4383 3138 c-12 -6 -28 -27 -36 -47 l-15 -36 90 -3 c50 -1 92 -1 95
2 2 2 -3 20 -11 40 -21 50 -72 69 -123 44z"/>
<path d="M6325 2989 c-92 -24 -117 -57 -75 -99 43 -43 134 -9 145 54 12 62 9
65 -70 45z"/>
<path d="M8073 3116 c-26 -23 -28 -29 -28 -101 0 -72 2 -78 28 -101 72 -62
157 -7 157 101 0 108 -85 163 -157 101z"/>
<path d="M9326 3128 c-14 -13 -28 -35 -32 -50 l-6 -28 92 0 92 0 -6 28 c-9 37
-51 72 -86 72 -16 0 -40 -10 -54 -22z"/>
<path d="M10855 3139 c-23 -14 -37 -34 -47 -66 -6 -23 -5 -23 87 -23 l94 0
-10 32 c-5 18 -15 38 -22 45 -19 19 -78 26 -102 12z"/>
<path d="M2262 2117 c-21 -22 -22 -31 -22 -244 0 -138 -4 -232 -11 -253 -18
-51 -92 -72 -136 -38 -7 5 -21 38 -33 73 -21 62 -33 75 -70 75 -67 0 -65 -135
3 -208 40 -43 77 -56 157 -56 81 1 117 14 163 59 47 48 57 105 57 339 0 116
-3 221 -6 232 -5 21 -41 44 -68 44 -7 0 -22 -10 -34 -23z"/>
<path d="M2703 2129 c-11 -6 -28 -25 -37 -43 -34 -65 -216 -540 -216 -562 0
-26 32 -64 53 -64 29 0 57 34 83 100 l27 70 134 0 133 0 12 -27 c57 -140 73
-157 120 -132 28 15 38 28 38 54 0 28 -210 544 -235 578 -23 31 -77 43 -112
26z m91 -257 c25 -68 46 -127 46 -132 0 -6 -42 -10 -96 -10 -73 0 -95 3 -92
13 3 6 24 67 48 135 24 67 44 121 46 120 1 -2 23 -59 48 -126z"/>
<path d="M3182 2120 c-22 -20 -22 -25 -22 -320 0 -295 0 -300 22 -320 27 -25
49 -25 79 -1 l24 19 0 302 0 302 -24 19 c-30 24 -52 24 -79 -1z"/>
<path d="M4322 2128 c-38 -19 -43 -65 -40 -360 3 -264 4 -278 23 -292 27 -21
51 -20 75 4 19 19 20 33 20 225 0 113 4 205 8 205 5 0 36 -44 71 -97 205 -324
243 -367 300 -347 47 17 51 38 51 334 0 151 -3 285 -6 297 -8 29 -55 48 -83
33 -12 -6 -22 -12 -23 -13 -1 -1 -4 -101 -8 -222 l-5 -220 -148 222 c-81 123
-156 227 -167 233 -23 12 -38 12 -68 -2z"/>
<path d="M8120 2120 c-19 -19 -20 -33 -20 -320 0 -287 1 -301 20 -320 35 -35
81 -21 99 31 7 20 11 127 11 289 0 162 -4 269 -11 289 -18 52 -64 66 -99 31z"/>
<path d="M8517 2126 c-92 -26 -147 -88 -147 -165 0 -96 61 -156 195 -191 143
-38 169 -52 178 -98 13 -65 -43 -112 -134 -112 -68 0 -99 20 -134 90 -27 54
-55 69 -91 49 -19 -10 -24 -20 -24 -53 0 -114 138 -199 294 -181 59 6 124 32
160 64 32 29 56 88 56 141 0 117 -58 160 -298 220 -54 14 -82 41 -82 79 0 56
81 92 160 71 33 -9 46 -21 75 -65 38 -60 68 -71 98 -37 45 50 -3 140 -96 180
-44 19 -156 24 -210 8z"/>
<path d="M9741 2125 c-70 -20 -109 -49 -132 -99 -34 -76 -17 -154 45 -200 32
-25 115 -55 204 -76 62 -14 112 -56 112 -94 0 -14 -13 -40 -29 -58 -28 -32
-32 -33 -104 -33 -65 0 -79 3 -100 23 -14 13 -31 38 -38 55 -26 66 -68 86
-102 49 -51 -56 21 -176 128 -213 65 -22 192 -17 245 10 91 47 123 95 123 184
-1 106 -46 145 -228 197 -61 18 -120 41 -132 53 -49 44 -11 110 69 122 64 10
111 -13 145 -70 39 -64 85 -73 113 -21 26 49 -24 128 -101 160 -56 23 -155 28
-218 11z"/>
<path d="M3720 2123 c-8 -3 -23 -12 -32 -21 -16 -14 -18 -41 -18 -302 0 -279
1 -287 21 -306 19 -17 41 -19 223 -22 220 -3 249 3 254 49 6 48 -15 54 -200
54 l-168 0 0 98 0 97 153 0 c161 0 177 4 177 45 0 41 -16 45 -177 45 l-153 0
0 85 0 85 164 0 c139 0 167 3 181 16 22 23 15 56 -15 71 -25 13 -377 18 -410
6z"/>
<path d="M4950 2123 c-18 -7 -39 -33 -40 -49 0 -5 6 -19 14 -30 12 -16 30 -20
108 -24 l93 -5 5 -262 c4 -187 9 -266 17 -274 19 -19 74 -15 89 6 11 15 14 75
14 277 l0 258 95 0 c90 0 95 1 111 25 14 22 15 30 4 50 -7 13 -22 26 -34 29
-28 7 -456 6 -476 -1z"/>
<path d="M5575 2105 l-25 -24 0 -281 0 -281 25 -24 c24 -25 25 -25 222 -25
223 0 248 6 248 55 0 47 -28 55 -207 55 l-158 0 0 95 0 95 160 0 160 0 6 27
c14 53 1 58 -170 61 l-156 3 0 84 0 85 168 0 c177 0 192 4 192 46 0 48 -28 54
-243 54 -197 0 -198 0 -222 -25z"/>
<path d="M6203 2121 c-12 -6 -26 -19 -32 -30 -7 -13 -11 -121 -11 -301 l0
-281 25 -24 c13 -14 31 -25 40 -25 9 0 27 11 40 25 24 23 25 30 25 149 l0 125
53 -5 c28 -3 63 -14 77 -23 14 -10 59 -71 100 -137 84 -131 108 -151 154 -120
15 9 26 26 26 39 0 38 -63 147 -117 204 -42 44 -49 55 -35 59 52 17 72 28 95
52 78 82 57 212 -43 270 -43 25 -52 27 -210 29 -91 2 -175 -1 -187 -6z m307
-104 c37 -18 54 -56 46 -100 -10 -54 -42 -67 -166 -67 l-100 0 0 90 0 90 98 0
c57 0 107 -5 122 -13z"/>
<path d="M6863 2121 c-12 -6 -26 -19 -32 -30 -12 -21 -16 -547 -5 -588 8 -29
55 -48 83 -34 34 19 41 45 41 155 l0 106 95 0 c161 0 243 47 266 151 21 92
-14 176 -90 218 -40 22 -58 25 -190 28 -80 2 -156 -1 -168 -6z m267 -104 c45
-15 67 -71 49 -124 -15 -46 -40 -57 -142 -63 l-87 -5 0 103 0 102 73 -1 c39 0
88 -5 107 -12z"/>
<path d="M7473 2121 c-12 -6 -26 -19 -32 -30 -12 -21 -16 -547 -5 -587 5 -21
42 -44 67 -44 7 0 21 7 32 16 18 13 21 30 25 147 l5 132 50 -3 c28 -2 61 -11
75 -21 14 -10 53 -62 88 -117 85 -135 90 -141 119 -149 33 -8 73 18 73 49 0
39 -62 147 -116 202 l-51 53 41 16 c108 43 148 153 91 252 -44 74 -81 86 -275
90 -91 2 -175 -1 -187 -6z m331 -120 c18 -17 26 -35 26 -58 0 -75 -35 -93
-176 -93 l-94 0 0 91 0 91 109 -4 c100 -3 112 -5 135 -27z"/>
<path d="M9015 2105 l-25 -24 0 -281 0 -281 25 -24 c24 -25 25 -25 227 -25
226 0 252 6 246 58 -5 44 -36 52 -210 52 l-158 0 0 95 0 95 160 0 160 0 6 27
c14 53 1 58 -170 61 l-156 3 0 84 0 85 164 0 c175 0 196 5 196 50 0 43 -32 50
-243 50 -197 0 -198 0 -222 -25z"/>
</g>
</svg>
